<svg width="31" height="31" viewBox="0 0 31 31" fill="none" xmlns="http://www.w3.org/2000/svg">
<path d="M15.5 0C24.0604 0 31 6.93959 31 15.5C31 24.0604 24.0604 31 15.5 31C6.93959 31 0 24.0604 0 15.5C0 6.93959 6.93959 0 15.5 0ZM6.33789 24C8.30052 26.1145 10.9846 27.5485 14 27.9092V24H6.33789ZM17 27.9092C20.0154 27.5485 22.6995 26.1145 24.6621 24H17V27.9092ZM3.08984 17C3.25974 18.4205 3.66914 19.767 4.27441 21H14V17H3.08984ZM17 21H26.7256C27.3309 19.767 27.7403 18.4205 27.9102 17H17V21ZM4.27441 10C3.66914 11.233 3.25974 12.5795 3.08984 14H14V10H4.27441ZM17 10V14H27.9102C27.7403 12.5795 27.3309 11.233 26.7256 10H17ZM14 3.08984C10.9846 3.45049 8.30055 4.88544 6.33789 7H14V3.08984ZM17 7H24.6621C22.6995 4.88544 20.0154 3.45049 17 3.08984V7Z" fill="#424242"/>
</svg>
